<svg xmlns="http://www.w3.org/2000/svg" xmlns:xlink="http://www.w3.org/1999/xlink" width="1000" zoomAndPan="magnify" viewBox="0 0 750 749.999995" height="1000" preserveAspectRatio="xMidYMid meet" version="1.0"><defs><clipPath id="75242ce75e"><path d="M 45.714844 119.835938 L 674 119.835938 L 674 650.835938 L 45.714844 650.835938 Z M 45.714844 119.835938 " clip-rule="nonzero"/></clipPath></defs><g clip-path="url(#75242ce75e)"><path fill="#e8e5d9" d="M 651.402344 577.023438 C 532.914062 602.800781 410.675781 617.847656 290.71875 638.878906 C 269.746094 643.847656 248.691406 646.484375 227.582031 650.097656 C 226.027344 650.722656 222.988281 648.792969 221.195312 647.347656 C 203.425781 611.359375 187.398438 573.785156 171.636719 536.726562 C 141.183594 457.34375 89.003906 388.574219 45.808594 315.375 C 80.003906 271.730469 120.414062 230.152344 159.078125 189.507812 C 174.738281 177.132812 194.039062 200.0625 210.753906 202.484375 C 216.539062 196.082031 217.832031 191.453125 220.027344 169.792969 C 284.328125 147.230469 354.328125 136.9375 420.800781 119.835938 C 439.199219 121.339844 452.738281 165.136719 469.882812 146.175781 C 485.96875 128.042969 494.550781 121.980469 516.4375 136.953125 C 564.863281 164.898438 613.054688 193.285156 662.03125 220.253906 C 672.574219 226.148438 674.859375 230.617188 672.3125 242.324219 C 661.871094 288.417969 651.804688 334.585938 642.921875 381.007812 C 635.617188 407.046875 632.855469 432.21875 639.292969 458.722656 C 643.195312 498.304688 648.429688 537.367188 651.402344 577.023438 Z M 464.960938 353.246094 C 431.367188 328.1875 402.453125 294.519531 387.695312 254.710938 C 382.363281 238.398438 368.824219 230.140625 353.175781 225.9375 C 334.4375 218.15625 334.941406 240.582031 330.875 252.589844 C 321.222656 291.304688 334.878906 330.457031 335.542969 369.375 C 306.515625 365.722656 285.546875 345.128906 261.753906 330.308594 C 228.574219 315.839844 196.296875 299.988281 171.222656 273.160156 C 163.066406 268.214844 152.539062 276.398438 155.953125 285.355469 C 159.917969 294.304688 167.523438 301.847656 174.074219 308.9375 C 190.449219 324.210938 202.257812 342.582031 212.460938 362.234375 C 232.390625 399.140625 256.28125 435.382812 261.617188 477.921875 C 225.648438 499.796875 240.195312 541.234375 264.101562 566.722656 C 271.429688 575.804688 283.011719 569.882812 291.558594 565.691406 C 306.765625 557.636719 322.578125 555.527344 339.433594 559.378906 C 362.234375 565.351562 384.082031 551.585938 406.910156 550.304688 C 422.433594 545.160156 438.921875 550.808594 454.570312 547.871094 C 470.144531 544.421875 485.566406 540.089844 500.839844 535.449219 C 520.578125 526.511719 566.382812 545 572.03125 517.328125 C 567.800781 498.65625 573.4375 460.390625 543.542969 467.847656 C 534.457031 437.25 548.226562 408.613281 558.339844 380.53125 C 572.257812 355.054688 560.160156 325.628906 574.039062 300.566406 C 580.800781 287.238281 587.554688 273.671875 591.59375 259.242188 C 596.765625 246.480469 582.308594 226.289062 568.917969 236.730469 C 556.308594 248.148438 549.152344 264.476562 534.808594 274.351562 C 525.148438 287.941406 508.558594 294.96875 501.054688 310.003906 C 492.457031 327.03125 483.410156 344.175781 464.960938 353.246094 Z M 464.960938 353.246094 " fill-opacity="1" fill-rule="nonzero"/></g><path fill="#ff914d" d="M 464.960938 353.246094 C 483.410156 344.175781 492.457031 327.03125 501.066406 310.015625 C 508.558594 294.980469 525.160156 287.953125 534.808594 274.363281 C 549.152344 264.488281 556.304688 248.148438 568.917969 236.742188 C 582.308594 226.3125 596.765625 246.503906 591.59375 259.253906 C 585.519531 285.417969 563.898438 307.34375 566.535156 335.316406 C 567.828125 351.164062 564.4375 365.847656 558.339844 380.542969 C 548.226562 408.628906 534.457031 437.25 543.542969 467.859375 C 573.472656 460.40625 567.75 498.667969 572.03125 517.339844 C 566.507812 544.984375 520.429688 526.539062 500.839844 535.460938 C 485.566406 540.105469 470.144531 544.433594 454.570312 547.882812 C 438.933594 550.820312 422.445312 545.175781 406.910156 550.320312 C 384.070312 551.613281 362.234375 565.378906 339.433594 559.40625 C 322.578125 555.566406 306.753906 557.671875 291.558594 565.71875 C 283.023438 569.910156 271.402344 575.832031 264.089844 566.734375 C 240.183594 542.050781 226.015625 498.957031 261.601562 477.9375 C 251.765625 422.90625 211.78125 350.273438 174.058594 308.949219 C 167.496094 301.847656 159.917969 294.316406 155.941406 285.371094 C 152.5625 276.445312 163.015625 268.191406 171.210938 273.171875 C 196.285156 300 228.5625 315.851562 261.742188 330.320312 C 285.523438 345.140625 306.503906 365.734375 335.53125 369.386719 C 334.863281 330.484375 321.210938 291.316406 330.863281 252.605469 C 334.925781 240.59375 334.4375 218.167969 353.160156 225.949219 C 368.824219 230.164062 382.339844 238.398438 387.683594 254.726562 C 402.453125 294.519531 431.367188 328.1875 464.960938 353.246094 Z M 516.953125 470.820312 C 521.484375 449.148438 514.140625 425.34375 519.523438 403.304688 C 527.28125 368.179688 541.160156 335.753906 546.59375 300.113281 C 535.363281 310.707031 529.640625 320.65625 520.96875 332.605469 C 511.28125 350.121094 489.257812 353.171875 479.632812 370.804688 C 468.765625 387.003906 448.320312 372.625 434.59375 368.257812 C 420.914062 364.191406 416.9375 350.035156 412.105469 338.277344 C 399.566406 313.679688 383.054688 286.886719 360 271.140625 C 350.550781 295.875 364.21875 324.082031 357.878906 349.519531 C 352.03125 362.320312 356.601562 382.335938 341.441406 388.5 C 304.507812 372.070312 266.359375 360.992188 230.90625 341.703125 C 229.351562 340.949219 227.632812 339.128906 225.511719 342.128906 C 236.644531 361.277344 247.386719 381.121094 257.6875 400.785156 C 268.492188 426.019531 262.320312 454.316406 278.972656 478.574219 C 295.925781 479.214844 313.03125 479.128906 329.71875 481.953125 C 363.476562 484.835938 396.945312 475.738281 431.140625 480.671875 C 466.015625 476.203125 476.808594 456.164062 516.953125 470.820312 Z M 271.882812 549.015625 C 292.488281 538.925781 314.660156 541.144531 335.542969 531.320312 C 364.265625 523.527344 395.878906 537.570312 424.414062 527.214844 C 460.84375 510.601562 501.894531 521.445312 538.222656 505.28125 C 539.453125 504.878906 539.929688 502.21875 540.996094 500.160156 C 506.738281 477.421875 486.609375 513.300781 454.558594 499.167969 C 430.691406 493.535156 405.480469 507.011719 380.957031 507.425781 C 351.707031 512.132812 322.039062 502.671875 293.0625 511.753906 C 284.292969 513.6875 274.441406 509.699219 267.488281 517.605469 C 268.832031 527.304688 270.222656 537.15625 271.882812 549.015625 Z M 271.882812 549.015625 " fill-opacity="1" fill-rule="nonzero"/><path fill="#e8e5d9" d="M 516.953125 470.820312 C 476.507812 456.175781 466.214844 476.191406 431.167969 480.683594 C 396.96875 475.753906 363.503906 484.863281 329.746094 481.976562 C 313.054688 479.140625 295.960938 479.226562 278.996094 478.589844 C 262.332031 454.304688 268.519531 426.046875 257.714844 400.785156 C 247.410156 381.121094 236.65625 361.277344 225.535156 342.128906 C 227.65625 339.128906 229.378906 340.949219 230.933594 341.703125 C 266.382812 360.992188 304.535156 372.070312 341.464844 388.5 C 356.625 382.347656 352.058594 362.320312 357.90625 349.519531 C 364.230469 324.097656 350.578125 295.847656 360.027344 271.140625 C 383.054688 286.886719 399.605469 313.691406 412.128906 338.277344 C 416.960938 350.035156 420.925781 364.191406 434.605469 368.257812 C 448.320312 372.625 468.789062 386.992188 479.644531 370.804688 C 489.269531 353.171875 511.292969 350.121094 520.980469 332.605469 C 529.664062 320.644531 535.335938 310.730469 546.605469 300.113281 C 541.171875 335.742188 527.28125 368.195312 519.539062 403.304688 C 514.152344 425.34375 521.484375 449.148438 516.953125 470.820312 Z M 516.953125 470.820312 " fill-opacity="1" fill-rule="nonzero"/><path fill="#e8e5d9" d="M 271.882812 549.015625 C 270.210938 537.15625 268.832031 527.304688 267.476562 517.589844 C 274.464844 509.683594 284.242188 513.675781 293.050781 511.742188 C 322.027344 502.65625 351.707031 512.121094 380.945312 507.414062 C 405.464844 507 430.675781 493.523438 454.546875 499.144531 C 486.773438 513.347656 506.324219 477.359375 540.984375 500.148438 C 539.917969 502.207031 539.441406 504.867188 538.210938 505.269531 C 501.867188 521.445312 460.832031 510.589844 424.402344 527.203125 C 395.867188 537.542969 364.265625 523.5 335.53125 531.308594 C 314.648438 541.15625 292.511719 538.925781 271.882812 549.015625 Z M 271.882812 549.015625 " fill-opacity="1" fill-rule="nonzero"/></svg>